<?xml version="1.0" encoding="UTF-8"?>
<svg width="26px" height="26px" viewBox="0 0 26 26" version="1.1" xmlns="http://www.w3.org/2000/svg" xmlns:xlink="http://www.w3.org/1999/xlink">
    <title>Untitled</title>
    <g id="Page-1" stroke="none" stroke-width="1" fill="none" fill-rule="evenodd">
        <g id="instagram" transform="translate(-0.0012, -0.0011)" fill="#000000" fill-rule="nonzero">
            <path d="M13.6438263,-1.77635684e-15 C13.7454375,-1.77635684e-15 13.8441039,-1.77635684e-15 13.9399608,0.0002615 L14.7304758,0.0017673 C16.0139873,0.0054751 16.6823201,0.0149574 17.2903476,0.0346459 L17.6296604,0.0468263 C17.8565055,0.0557031 18.0895007,0.0661321 18.3579067,0.0783468 C19.741963,0.1417271 20.6872383,0.3608497 21.5160469,0.6823558 C22.3719408,1.0141544 23.095117,1.4583584 23.8182931,2.181544 C24.5414693,2.904188 24.9856674,3.6295404 25.3188159,4.484633 C25.6384219,5.3112857 25.8578124,6.2560315 25.922817,7.6401059 C25.9368838,7.9532505 25.9486029,8.218279 25.9583173,8.4816076 L25.9661609,8.707984 C25.988267,9.3923598 25.9977653,10.1531841 26.0004885,11.7796634 L26.0013642,12.3549671 C26.0013642,12.5581438 26.0013642,12.7730902 26.0013642,13.0008889 L26.0013642,13.3330797 C26.0013642,13.440686 26.0013642,13.5452136 26.0013642,13.6467977 L26.0004885,14.2220648 C25.9964038,16.6615717 25.9770749,17.1527451 25.922817,18.3605883 C25.8578124,19.744121 25.6384219,20.6891377 25.3188159,21.5160613 C24.9856674,22.3708829 24.5414693,23.0962354 23.8182931,23.8188794 C23.0959295,24.5420651 22.37167,24.9873524 21.5168594,25.3194219 C20.6896759,25.640928 19.743859,25.8600506 18.3598028,25.9234309 C17.107241,25.9804329 16.6256298,25.9985445 13.9421918,26.0015161 L12.0582694,26.0015161 C9.3750595,25.9985445 8.8925644,25.9804329 7.6400027,25.9234309 C6.2562173,25.8600506 5.3112129,25.640928 4.4840294,25.3194219 C3.6294897,24.9873524 2.9041468,24.5420651 2.1817832,23.8188794 C1.4588779,23.0962354 1.0146797,22.3708829 0.6823438,21.5157904 C0.3611127,20.6891377 0.141993,19.7443918 0.0783427,18.3603174 C0.027667,17.2419441 0.007642,16.7381758 0.0017887,14.7331628 L0.0002653,13.9428482 C0,13.847017 0,13.7483775 0,13.6467945 L0,12.3549638 C0,12.2533744 0,12.1547272 0.0002788,12.0588868 L0.0018359,11.2684558 C0.0056535,9.9849857 0.0153225,9.31616 0.0349019,8.7077684 L0.0469873,8.3682687 C0.0557768,8.1413139 0.0660669,7.9082447 0.0780718,7.6398351 C0.1403679,6.2563024 0.3597584,5.3112857 0.6820729,4.4843621 C1.0152215,3.6295404 1.4594195,2.904188 2.1825957,2.181544 C2.9052302,1.4586292 3.6305732,1.0144253 4.4856545,0.6823558 C5.3122963,0.3608497 6.2570298,0.1417271 7.6410861,0.0783468 C7.9094922,0.0661321 8.1425482,0.0557031 8.3694837,0.0468263 L8.7089501,0.0346459 C9.3172761,0.0149574 9.9860052,0.0054751 11.2694149,0.0017673 L12.0598161,0.0002615 C12.1556537,-1.77635684e-15 12.2542983,-1.77635684e-15 12.3558853,-1.77635684e-15 L13.6438263,-1.77635684e-15 Z M11.8355078,2.3394531 C9.4124614,2.3421617 8.9476785,2.358413 7.7483436,2.4125843 C6.480754,2.4708183 5.7925178,2.682086 5.3342354,2.860851 C4.7275257,3.0970375 4.2941618,3.3787277 3.8391296,3.8337659 C3.3840974,4.2888041 3.1018691,4.7221737 2.8662274,5.3288913 C2.6882773,5.7871797 2.4764707,6.4751541 2.4185083,7.7427604 C2.3622408,8.9806599 2.3466311,9.4345616 2.3441369,12.0690988 L2.3441369,13.9202764 C2.3466311,16.5551557 2.3622408,17.0108252 2.4185083,18.2487248 C2.4761998,19.516331 2.6882773,20.2043054 2.8662274,20.6620521 C3.1024108,21.2690405 3.3840974,21.7013268 3.8391296,22.156365 C4.2941618,22.6114031 4.7275257,22.8930934 5.3342354,23.1287382 C5.7927886,23.3066906 6.480754,23.5185 7.7483436,23.5770049 C8.986227,23.6332731 9.4416695,23.6497668 12.0762719,23.6524322 L13.9272612,23.6524322 C16.5617069,23.6497668 17.0173704,23.6332731 18.2552537,23.5770049 C19.5228433,23.5190417 20.2113504,23.307774 20.6690911,23.129009 C21.2760716,22.8933642 21.7080813,22.6116739 22.1631135,22.1566358 C22.6181457,21.7018685 22.900374,21.2698531 23.1360156,20.6631356 C23.3139657,20.2053889 23.5257724,19.5174145 23.5837349,18.2498082 C23.6400022,17.0119087 23.6564958,16.5562391 23.6591612,13.9229565 L23.6591612,12.0728623 C23.6573525,10.285992 23.6491766,9.5018235 23.6265265,8.795541 L23.6188832,8.5740147 C23.6093827,8.316071 23.5978017,8.0554855 23.5837349,7.7460107 C23.5260432,6.4784044 23.3139657,5.79043 23.1360156,5.3326833 C22.8998323,4.7259657 22.6181457,4.292596 22.1631135,3.8375579 C21.7083521,3.3825198 21.2758008,3.1008295 20.6690911,2.8651847 C20.2108087,2.6872323 19.5228433,2.4754228 18.2552537,2.4174596 C17.0171258,2.3611915 16.5616595,2.3455816 13.9272544,2.3430873 L11.8355078,2.3427034 L11.8355078,2.3394531 Z M13.0015278,6.3242873 C16.6886428,6.3242873 19.6772293,9.3137254 19.6772293,13.0008889 C19.6772293,16.6880522 16.6889137,19.6761361 13.0017987,19.6761361 C9.3146837,19.6761361 6.3252847,16.6880522 6.3252847,13.0008889 C6.3252847,9.3137254 9.3146837,6.3242873 13.0017987,6.3242873 L13.0015278,6.3242873 Z M13.0017987,8.6671921 C10.6082752,8.6671921 8.6681587,10.6073339 8.6681587,13.0008889 C8.6681587,15.3941729 10.6082752,17.3345856 13.0017987,17.3345856 C15.3950513,17.3345856 17.3354386,15.3941729 17.3354386,13.0008889 C17.3354386,10.6073339 15.3950513,8.6671921 13.0017987,8.6671921 Z M19.9415813,4.5008843 C20.8028923,4.5008843 21.5016917,5.199693 21.5016917,6.0610152 C21.5016917,6.9223374 20.8028923,7.621146 19.9415813,7.621146 C19.0802704,7.621146 18.3814709,6.9223374 18.3814709,6.0610152 C18.3814709,5.1994221 19.0802704,4.5014261 19.9415813,4.5014261 L19.9415813,4.5008843 Z" id="Combined-Shape-path-2"></path>
        </g>
    </g>
</svg>